HIERARCHY
ROOT Pelvis
{
	OFFSET 0.000000 0.000000 0.000000
	CHANNELS 6 Xposition Yposition Zposition Xrotation Yrotation Zrotation
	JOINT LeftUpLeg_virtual
	{
		OFFSET 0.000000 0.000000 0.000000
		CHANNELS 3 Xrotation Yrotation Zrotation
		JOINT LeftUpLeg
		{
			OFFSET 8.479700 -4.795502 -0.379100
			CHANNELS 3 Xrotation Yrotation Zrotation
			JOINT LeftLeg
			{
				OFFSET 0.024144 -32.555107 0.112900
				CHANNELS 3 Xrotation Yrotation Zrotation
				JOINT LeftFoot
				{
					OFFSET -0.024144 -32.638630 -3.012600
					CHANNELS 3 Xrotation Yrotation Zrotation
					JOINT LeftToeBase
					{
						OFFSET 0.970200 -13.225400 11.864200
						CHANNELS 3 Xrotation Yrotation Zrotation
						End Site
						{
							OFFSET 0 0 0
						}
					}
				}
			}
		}
	}
	JOINT RightUpLeg_virtual
	{
		OFFSET 0.000000 0.000000 0.000000
		CHANNELS 3 Xrotation Yrotation Zrotation
		JOINT RightUpLeg
		{
			OFFSET -8.479700 -4.795502 -0.379100
			CHANNELS 3 Xrotation Yrotation Zrotation
			JOINT RightLeg
			{
				OFFSET -0.023144 -32.555092 0.112900
				CHANNELS 3 Xrotation Yrotation Zrotation
				JOINT RightFoot
				{
					OFFSET 0.023144 -32.638641 -3.012700
					CHANNELS 3 Xrotation Yrotation Zrotation
					JOINT RightToeBase
					{
						OFFSET -0.970200 -13.225400 11.864200
						CHANNELS 3 Xrotation Yrotation Zrotation
						End Site
						{
							OFFSET 0 0 0
						}
					}
				}
			}
		}
	}
	JOINT Hips_virtual
	{
		OFFSET 0.000000 0.000000 0.000000
		CHANNELS 3 Xrotation Yrotation Zrotation
		JOINT Hips
		{
			OFFSET -0.000000 -0.000000 -0.000000
			CHANNELS 3 Xrotation Yrotation Zrotation
			JOINT Spine
			{
				OFFSET 0.000000 7.722000 1.166200
				CHANNELS 3 Xrotation Yrotation Zrotation
				JOINT Spine1
				{
					OFFSET 0.000000 12.024101 0.248800
					CHANNELS 3 Xrotation Yrotation Zrotation
					JOINT Spine2
					{
						OFFSET 0.000000 11.502998 -0.491200
						CHANNELS 3 Xrotation Yrotation Zrotation
						JOINT Neck_virtual
						{
							OFFSET 0.000000 0.000000 0.000000
							CHANNELS 3 Xrotation Yrotation Zrotation
							JOINT Neck
							{
								OFFSET 0.000000 18.430702 -3.123100
								CHANNELS 3 Xrotation Yrotation Zrotation
								JOINT Head
								{
									OFFSET 0.000000 9.051102 1.034000
									CHANNELS 3 Xrotation Yrotation Zrotation
									End Site
									{
										OFFSET 0 0 0
									}
								}
							}
						}
						JOINT LeftShoulder_virtual
						{
							OFFSET 0.000000 0.000000 0.000000
							CHANNELS 3 Xrotation Yrotation Zrotation
							JOINT LeftShoulder
							{
								OFFSET 6.197800 13.665199 -4.064700
								CHANNELS 3 Xrotation Yrotation Zrotation
								JOINT LeftArm
								{
									OFFSET 7.778100 -0.187103 -1.709300
									CHANNELS 3 Xrotation Yrotation Zrotation
									JOINT LeftForeArm
									{
										OFFSET 22.049376 0.000000 0.000000
										CHANNELS 3 Xrotation Yrotation Zrotation
										JOINT LeftHand
										{
											OFFSET 23.009392 0.000000 0.000000
											CHANNELS 3 Xrotation Yrotation Zrotation
											End Site
											{
												OFFSET 0 0 0
											}
										}
									}
								}
							}
						}
						JOINT RightShoulder_virtual
						{
							OFFSET 0.000000 0.000000 0.000000
							CHANNELS 3 Xrotation Yrotation Zrotation
							JOINT RightShoulder
							{
								OFFSET -6.197800 13.665199 -4.064700
								CHANNELS 3 Xrotation Yrotation Zrotation
								JOINT RightArm
								{
									OFFSET -7.778100 -0.187103 -1.709300
									CHANNELS 3 Xrotation Yrotation Zrotation
									JOINT RightForeArm
									{
										OFFSET -22.049376 0.000000 0.000000
										CHANNELS 3 Xrotation Yrotation Zrotation
										JOINT RightHand
										{
											OFFSET -23.009392 0.000000 0.000000
											CHANNELS 3 Xrotation Yrotation Zrotation
											End Site
											{
												OFFSET 0 0 0
											}
										}
									}
								}
							}
						}
					}
				}
			}
		}
	}
}
MOTION
Frames: 12
Frame Time: 0.03333333
14.268635 76.494843 -18.805614 0.000000 0.000000 0.000000 155.521959 -33.104691 160.814140 -25.111839 33.310600 25.572532 26.542028 23.225961 -0.564487 -10.013987 11.722291 -26.860009 0.000000 0.000000 0.000000 155.521959 -33.104691 160.814140 -58.254479 18.298087 12.828110 36.095060 -0.575319 2.686612 -3.618709 -5.992928 3.847980 0.000000 0.000000 0.000000 155.521959 -33.104691 160.814140 0.000001 0.000000 0.000000 36.400131 3.184254 8.815130 -9.351839 -3.570433 1.181058 0.000000 0.000000 0.000000 -9.435596 -2.352112 2.017855 -12.226142 -7.455023 -5.693959 0.000000 0.000000 0.000000 -9.435596 -2.352112 2.017855 5.744839 -10.522763 24.025843 -67.510594 -3.722623 -45.267987 1.348442 -68.597666 4.202959 0.000000 0.000000 0.000000 -9.435596 -2.352112 2.017855 8.424594 8.375893 -5.507274 -1.238768 1.267733 68.329165 13.833028 26.209119 -4.662802 0.000000 0.000000 0.000000 
14.219566 76.577370 -18.862251 0.000000 0.000000 0.000000 155.674792 -33.299716 160.992832 -24.353528 33.328024 25.086148 25.782689 23.335688 -0.501965 -9.714605 11.690377 -26.769721 0.000000 0.000000 0.000000 155.674792 -33.299716 160.992832 -57.792812 18.181719 12.557702 35.950728 -0.534721 2.682511 -3.658492 -5.882334 3.776193 0.000000 0.000000 0.000000 155.674792 -33.299716 160.992832 0.000000 0.000000 0.000000 36.359556 3.215325 8.857569 -9.302403 -3.573412 1.240611 0.000000 0.000000 0.000000 -9.386066 -2.346663 2.077848 -12.663937 -9.245404 -5.425665 0.000000 0.000000 0.000000 -9.386066 -2.346663 2.077848 5.600709 -10.392681 23.545696 -67.435031 -3.677407 -45.248149 1.632191 -68.445271 4.470467 0.000000 0.000000 0.000000 -9.386066 -2.346663 2.077848 8.387670 8.109943 -5.631587 -1.325129 1.460309 68.468330 13.559634 26.271824 -4.380967 0.000000 0.000000 0.000000 
14.179521 76.651039 -18.902702 0.000000 0.000000 0.000000 155.802175 -33.486785 161.184418 -23.644406 33.332068 24.584781 25.085417 23.437220 -0.444142 -9.440881 11.671736 -26.672447 0.000000 0.000000 0.000000 155.802175 -33.486785 161.184418 -57.381860 18.066240 12.254772 35.887139 -1.610574 2.591945 -3.670847 -4.636011 3.885041 0.000000 0.000000 0.000000 155.802175 -33.486785 161.184418 0.000002 0.000003 -0.000001 36.287088 3.236228 8.899086 -9.262708 -3.564026 1.268315 0.000000 0.000000 0.000000 -9.346580 -2.337911 2.102953 -12.950599 -10.349953 -5.301791 0.000000 0.000000 0.000000 -9.346580 -2.337911 2.102953 5.455871 -10.276588 23.062291 -67.354503 -3.637396 -45.228082 1.900073 -68.291687 4.724012 0.000000 0.000000 0.000000 -9.346580 -2.337911 2.102953 8.353453 7.968170 -5.710308 -1.302546 1.649682 68.639248 13.413301 26.330430 -4.243886 0.000000 0.000000 0.000000 
14.143658 76.720551 -18.935699 0.000000 0.000000 0.000000 155.918343 -33.670435 161.381879 -22.956204 33.327908 24.076238 24.412351 23.535860 -0.387693 -9.178018 11.657775 -26.569823 0.000000 0.000000 0.000000 155.918343 -33.670435 161.381879 -56.995029 17.943223 11.948094 35.780209 -1.413172 2.602502 -3.701426 -4.644422 3.803911 0.000000 0.000000 0.000000 155.918343 -33.670435 161.381879 0.000000 0.000000 0.000000 36.200460 3.253459 8.939548 -9.227463 -3.548997 1.281481 0.000000 0.000000 0.000000 -9.311688 -2.327706 2.112158 -13.170370 -11.140848 -5.245219 0.000000 0.000000 0.000000 -9.311688 -2.327706 2.112158 5.312896 -10.162607 22.584273 -67.273996 -3.603507 -45.213848 2.101684 -68.140447 4.908499 0.000000 0.000000 0.000000 -9.311688 -2.327706 2.112158 8.320675 7.882603 -5.768236 -1.231547 1.837836 68.824005 13.324709 26.387469 -4.172546 0.000000 0.000000 0.000000 
14.109829 76.788048 -18.965179 0.000000 0.000000 0.000000 156.029784 -33.852815 161.581976 -22.273821 33.317950 23.563466 23.742520 23.634920 -0.331425 -8.915921 11.643436 -26.464616 0.000000 0.000000 0.000000 156.029784 -33.852815 161.581976 -56.619061 17.814419 11.635147 35.679194 -1.208004 2.614054 -3.730818 -4.652602 3.722316 0.000000 0.000000 0.000000 156.029784 -33.852815 161.581976 0.000002 0.000001 -0.000000 36.106832 3.269466 8.979587 -9.194322 -3.531462 1.288038 0.000000 0.000000 0.000000 -9.278983 -2.316854 2.114174 -13.362138 -11.789480 -5.218623 0.000000 0.000000 0.000000 -9.278983 -2.316854 2.114174 5.194781 -10.040147 22.169462 -67.199130 -3.604867 -45.225076 1.684103 -68.010051 4.498541 0.000000 0.000000 0.000000 -9.278983 -2.316854 2.114174 8.288728 7.822016 -5.816740 -1.139772 2.025634 69.014233 13.262177 26.443699 -4.130530 0.000000 0.000000 0.000000 
14.077112 76.854446 -18.992828 0.000000 0.000000 0.000000 156.139736 -34.035263 161.783194 -21.593916 33.302589 23.049773 23.072475 23.734424 -0.275768 -8.654950 11.627818 -26.354968 0.000000 0.000000 0.000000 156.139736 -34.035263 161.783194 -56.248602 17.679513 11.318581 35.580689 -0.997451 2.626128 -3.759321 -4.660587 3.640542 0.000000 0.000000 0.000000 156.139736 -34.035263 161.783194 0.000002 -0.000000 -0.000001 36.010195 3.285450 9.020849 -9.162385 -3.512818 1.290569 0.000000 0.000000 0.000000 -9.247494 -2.306221 2.109366 -13.539131 -12.372224 -5.206202 0.000000 0.000000 0.000000 -9.247494 -2.306221 2.109366 5.092346 -9.917933 21.788889 -67.129920 -3.618319 -45.245967 1.053110 -67.883249 3.883926 0.000000 0.000000 0.000000 -9.247494 -2.306221 2.109366 8.257161 7.771960 -5.860958 -1.039634 2.213178 69.206175 13.211172 26.499160 -4.101188 0.000000 0.000000 0.000000 
14.045235 76.919952 -19.019222 0.000000 0.000000 0.000000 156.249238 -34.218814 161.984193 -20.914167 33.282504 22.536957 22.397246 23.841334 -0.219810 -8.391068 11.602230 -26.244691 0.000000 0.000000 0.000000 156.249238 -34.218814 161.984193 -55.881988 17.538413 10.999799 35.483949 -0.783739 2.638653 -3.787287 -4.668606 3.559248 0.000000 0.000000 0.000000 156.249238 -34.218814 161.984193 -0.000002 -0.000002 -0.000000 35.912127 3.302351 9.063707 -9.131078 -3.494103 1.290934 0.000000 0.000000 0.000000 -9.216730 -2.295458 2.103251 -13.710688 -12.922381 -5.199960 0.000000 0.000000 0.000000 -9.216730 -2.295458 2.103251 5.002055 -9.799218 21.431674 -67.066918 -3.635077 -45.270142 0.359706 -67.754800 3.211076 0.000000 0.000000 0.000000 -9.216730 -2.295458 2.103251 8.226007 7.725633 -5.903203 -0.936612 2.400227 69.397550 13.165325 26.553533 -4.076873 0.000000 0.000000 0.000000 
14.029973 76.971199 -19.028591 0.000000 0.000000 0.000000 156.331760 -34.454158 162.144402 -20.387903 33.206703 22.122004 21.900006 23.883163 -0.181176 -8.197088 11.584743 -26.130583 0.000000 0.000000 0.000000 156.331760 -34.454158 162.144402 -55.564460 17.386334 10.680343 35.436118 -0.621466 2.649607 -3.820594 -4.678683 3.496219 0.000000 0.000000 0.000000 156.331760 -34.454158 162.144402 0.000001 -0.000001 0.000001 35.805330 3.315487 9.104389 -9.104739 -3.472246 1.288641 0.000000 0.000000 0.000000 -9.190956 -2.281810 2.095520 -13.823796 -13.326660 -5.218060 0.000000 0.000000 0.000000 -9.190956 -2.281810 2.095520 4.929577 -9.692110 21.106794 -67.016170 -3.646244 -45.293122 -0.267581 -67.619187 2.605773 0.000000 0.000000 0.000000 -9.190956 -2.281810 2.095520 8.200048 7.648893 -5.954795 -0.819871 2.534863 69.558933 13.117351 26.579548 -4.036400 0.000000 0.000000 0.000000 
14.016699 77.020439 -19.034473 0.000000 0.000000 0.000000 156.412848 -34.692423 162.295595 -19.886458 33.120253 21.727829 21.425139 23.932170 -0.142855 -8.008185 11.554909 -26.024132 0.000000 0.000000 0.000000 156.412848 -34.692423 162.295595 -55.254653 17.225997 10.364505 35.388453 -0.461745 2.660320 -3.851398 -4.688826 3.435734 0.000000 0.000000 0.000000 156.412848 -34.692423 162.295595 0.000001 -0.000001 0.000000 35.695299 3.331568 9.149129 -9.078625 -3.449943 1.285263 0.000000 0.000000 0.000000 -9.165497 -2.267727 2.086628 -13.923473 -13.692299 -5.236038 0.000000 0.000000 0.000000 -9.165497 -2.267727 2.086628 4.896375 -9.616771 20.855494 -66.996322 -3.637913 -45.309385 -0.643846 -67.470016 2.250230 0.000000 0.000000 0.000000 -9.165497 -2.267727 2.086628 8.175288 7.566686 -6.011349 -0.702945 2.660150 69.713118 13.067237 26.598478 -3.990446 0.000000 0.000000 0.000000 
14.005740 77.067574 -19.037216 0.000000 0.000000 0.000000 156.490986 -34.935803 162.438742 -19.411958 33.022848 21.353540 20.978586 23.980856 -0.106236 -7.830662 11.519301 -25.918474 0.000000 0.000000 0.000000 156.490986 -34.935803 162.438742 -54.952420 17.057740 10.050085 35.343429 -0.305056 2.670621 -3.880155 -4.699251 3.378338 0.000000 0.000000 0.000000 156.490986 -34.935803 162.438742 0.000001 0.000001 0.000001 35.582752 3.349075 9.195852 -9.053020 -3.427204 1.281032 0.000000 0.000000 0.000000 -9.140519 -2.253210 2.076698 -14.012533 -14.025302 -5.255297 0.000000 0.000000 0.000000 -9.140519 -2.253210 2.076698 4.852122 -9.513375 20.623131 -66.998514 -3.624596 -45.361195 -0.871620 -67.324041 2.043072 0.000000 0.000000 0.000000 -9.140519 -2.253210 2.076698 8.151453 7.479178 -6.071508 -0.585558 2.776611 69.861190 13.015612 26.611177 -3.940240 0.000000 0.000000 0.000000 
13.997447 77.112320 -19.037037 0.000000 0.000000 0.000000 156.565845 -35.186877 162.575359 -18.963605 32.915488 20.999230 20.561011 24.033831 -0.073882 -7.664044 11.469646 -25.814271 0.000000 0.000000 0.000000 156.565845 -35.186877 162.575359 -54.658705 16.882761 9.735290 35.305060 -0.152864 2.681515 -3.908857 -4.709752 3.322068 0.000000 0.000000 0.000000 156.565845 -35.186877 162.575359 -0.000002 0.000004 -0.000001 35.468175 3.366438 9.242289 -9.028165 -3.403980 1.276079 0.000000 0.000000 0.000000 -9.116346 -2.238300 2.065835 -14.090235 -14.331472 -5.278100 0.000000 0.000000 0.000000 -9.116346 -2.238300 2.065835 4.803850 -9.399120 20.403551 -67.005010 -3.610794 -45.424310 -1.094364 -67.179070 1.841108 0.000000 0.000000 0.000000 -9.116346 -2.238300 2.065835 8.128388 7.386587 -6.133843 -0.467365 2.884575 70.004193 12.963402 26.618709 -3.886937 0.000000 0.000000 0.000000 
13.992170 77.154572 -19.034203 0.000000 0.000000 0.000000 156.637165 -35.448156 162.706977 -18.540292 32.798592 20.661814 20.171055 24.078507 -0.044468 -7.507676 11.417039 -25.709889 0.000000 0.000000 0.000000 156.637165 -35.448156 162.706977 -54.373715 16.701718 9.417504 35.276110 -0.005398 2.693366 -3.938682 -4.720657 3.268768 0.000000 0.000000 0.000000 156.637165 -35.448156 162.706977 -0.000002 0.000001 0.000000 35.352772 3.382158 9.286411 -9.004243 -3.380260 1.270639 0.000000 0.000000 0.000000 -9.093146 -2.223058 2.054131 -14.159782 -14.617184 -5.305989 0.000000 0.000000 0.000000 -9.093146 -2.223058 2.054131 4.755554 -9.286286 20.201222 -66.996424 -3.601699 -45.476865 -1.497542 -67.034263 1.463135 0.000000 0.000000 0.000000 -9.093146 -2.223058 2.054131 8.105901 7.289136 -6.197033 -0.347909 2.984589 70.143242 12.911186 26.621690 -3.831592 0.000000 0.000000 0.000000 
